inDegrees=no
num_controls=7
num_derivatives=13
num_iterations=87
num_multipliers=7
num_parameters=0
num_slacks=7
num_states=26
objective=0.346832
objective_accelerations=0.011076
objective_balance=0.000827
objective_effort=0.010865
objective_height=0.322047
objective_ligament=0.002017
solver_duration=878.264258
status=Solve_Succeeded
success=true
DataType=double
version=3
OpenSimVersion=4.5
endheader
time	/jointset/ground_pelvis/pelvis_tilt/value	/jointset/ground_pelvis/pelvis_tx/value	/jointset/ground_pelvis/pelvis_ty/value	/jointset/hip_r/hip_flexion_r/value	/jointset/hip_r/hip_adduction_r/value	/jointset/hip_r/hip_rotation_r/value	/jointset/back/lumbar_extension/value	/jointset/patellofemoral_r/patellar_flexion_r/value	/jointset/knee_r/knee_flexion_r/value	/jointset/knee_r/knee_adduction_r/value	/jointset/knee_r/knee_rotation_r/value	/jointset/ankle_r/ankle_angle_r/value	/jointset/subtalar_r/subtalar_angle_r/value	/jointset/ground_pelvis/pelvis_tilt/speed	/jointset/ground_pelvis/pelvis_tx/speed	/jointset/ground_pelvis/pelvis_ty/speed	/jointset/hip_r/hip_flexion_r/speed	/jointset/hip_r/hip_adduction_r/speed	/jointset/hip_r/hip_rotation_r/speed	/jointset/back/lumbar_extension/speed	/jointset/patellofemoral_r/patellar_flexion_r/speed	/jointset/knee_r/knee_flexion_r/speed	/jointset/knee_r/knee_adduction_r/speed	/jointset/knee_r/knee_rotation_r/speed	/jointset/ankle_r/ankle_angle_r/speed	/jointset/subtalar_r/subtalar_angle_r/speed	/forceset/tau_hip_flexion_r	/forceset/tau_hip_adduction_r	/forceset/tau_hip_rotation_r	/forceset/tau_knee_flexion_r	/forceset/tau_ankle_angle_r	/forceset/tau_subtalar_angle_r	/forceset/tau_lumbar_extension	lambda_cid13_p0	lambda_cid14_p0	lambda_cid14_p1	lambda_cid14_p2	lambda_cid14_p3	lambda_cid14_p4	lambda_cid14_p5	/jointset/ground_pelvis/pelvis_tilt/accel	/jointset/ground_pelvis/pelvis_tx/accel	/jointset/ground_pelvis/pelvis_ty/accel	/jointset/hip_r/hip_flexion_r/accel	/jointset/hip_r/hip_adduction_r/accel	/jointset/hip_r/hip_rotation_r/accel	/jointset/back/lumbar_extension/accel	/jointset/patellofemoral_r/patellar_flexion_r/accel	/jointset/knee_r/knee_flexion_r/accel	/jointset/knee_r/knee_adduction_r/accel	/jointset/knee_r/knee_rotation_r/accel	/jointset/ankle_r/ankle_angle_r/accel	/jointset/subtalar_r/subtalar_angle_r/accel	gamma_cid13_p0	gamma_cid14_p0	gamma_cid14_p1	gamma_cid14_p2	gamma_cid14_p3	gamma_cid14_p4	gamma_cid14_p5
1	0.1090233814304997	0.09014402106149395	0.8831189673165644	0.3857696336419347	-0.2386934118170321	-0.1352382719883581	-0.7851645977065153	0.7172416928554374	0.7172416928554338	0.04661353820377249	0.1745208389462762	0.2955886063326468	0.1149486647365012	0.06748125495075617	0.01146192668865554	0.009084199451654158	-0.1021387034961106	0.000656621981909141	-0.007822203701562067	0.02923173762644042	-0.02043675826085085	-0.02043675826085085	-0.0004303621533434139	-6.098455384791475e-05	0.01446088864424686	0.006552467091057313	-0.119661334468267	0.03872481803987705	0.020589801786723	-0.2496064701594005	-0.07787650783968234	-0.0203826469603499	0.2247252913655252	-20.1499423062938	-71.90194235948	-19.1468069137422	0.8531466606698521	7.167682069274894	-693.0277519966135	45.56472112747119	-0.2786193590140087	0.1537508769920812	0.3333065015822868	-1.044702243379037	0.01684713157658451	-0.314705836496193	1.75854491961045	-2.051889877233338	-2.051889877233338	0.4146021341492663	-0.007815308725970851	-0.8547989687933122	-0.2862977070362898	1.895228879183222e-10	-8.978487416521203e-10	-2.135934044805881e-09	-7.017914631076472e-10	6.372633209716215e-10	-4.523172865021852e-09	-1.038960953451041e-09
1.01	0.1096838460955447	0.0902663738509485	0.8832263671386446	0.3846966616706786	-0.2386860531461023	-0.135332474719376	-0.7847836387844846	0.716935161797313	0.7169351617973122	0.04662979999554235	0.174520165686523	0.2956906856905005	0.1149998764946408	0.06460492476330069	0.01301468308300026	0.01239354344447836	-0.1124517585029958	0.0008140939539875388	-0.01101816560401946	0.04699571920405326	-0.04086278297609802	-0.04086278297609799	0.003683454222072888	-7.232160806457566e-05	0.005964666611583656	0.003691682335490781	-0.1193587780605462	0.03867188861727673	0.02057439648887033	-0.2496182416216955	-0.07788592632904885	-0.02037241014759955	0.2245615543997385	-20.16436644007904	-71.89956829222174	-19.14049012330574	0.8504772670313705	7.134671868397167	-692.9650841795931	45.58702617649142	-0.2931528254141674	0.1569460985502567	0.3294139243481295	-1.024017382685385	0.01504402449214204	-0.3220147908552408	1.79067564049452	-2.036958284846133	-2.036958284846129	0.4098807890774758	0.002408573800900435	-0.8455812592123855	-0.2857000845191844	3.700625247834686e-10	-1.332398238652123e-09	-4.806385538907487e-09	-1.364514981739022e-09	1.4704263324954e-09	-5.964431719102376e-09	-2.552155014629285e-09
1.02	0.1103153448633543	0.0904044358199254	0.883366793515896	0.3835206770986837	-0.2386771503965585	-0.1354586317541644	-0.7842239698739466	0.7164245705888009	0.7164245705888022	0.04668722183103301	0.1745194193517411	0.2957080933402854	0.1150225341602843	0.06168807550373148	0.01460376259312551	0.01568951048592393	-0.1227412236435665	0.0009654377048114225	-0.01421306445586709	0.06497373532797943	-0.06124878833837447	-0.06124878833837444	0.007801646591075674	-7.559955946362706e-05	-0.00247345296946201	0.0008416485918299325	-0.1190562216528335	0.03861895919468061	0.02055899119102654	-0.2496300130839931	-0.07789534481841462	-0.02036217333484268	0.2243978174339447	-20.18827471293785	-71.90549010689607	-19.13242679537469	0.8438754350233223	7.104940543452247	-693.0381107966504	45.62758005323488	-0.2867231734367592	0.1610155001481945	0.3306311113065622	-1.039984270116135	0.01562148732567052	-0.3144932263742676	1.801351828873115	-2.043886006639191	-2.043886006639193	0.4154773328665693	-0.006203488162410205	-0.8431784784697988	-0.2841475046551678	5.755216553050037e-10	-1.587496273608271e-09	-7.0673071006202e-09	-2.188286957955319e-09	1.981442878953347e-09	-7.42353283205628e-09	-3.313803702464338e-09
1.03	0.1109174580275335	0.09055852136141757	0.8835400987417952	0.3822420056428134	-0.2386667595917082	-0.1356167254461626	-0.7834836285638602	0.7157103282527606	0.7157103282527619	0.04678584267729164	0.1745186687301369	0.2956413432179466	0.1150167325751813	0.0587259778942474	0.01621452310519587	0.01896784757037723	-0.1329795694579142	0.001112372491750195	-0.01740515888873623	0.08311295923955934	-0.08159185414348481	-0.08159185414348469	0.01192217987873547	-7.42434020755749e-05	-0.01087343661966969	-0.002001156505501536	-0.1185696757079156	0.03854366445906882	0.02052936762179761	-0.2495062792860353	-0.07794570592240523	-0.02036183939666633	0.2239965885622823	-20.22163295979687	-71.9110238351831	-19.1267244681317	0.8355117563560547	7.147693985704629	-692.8550149031771	45.64212266467732	-0.302239900678571	0.1612834376471018	0.3258801530745875	-1.01373512383071	0.01417572222143579	-0.3214902010580306	1.822972554838137	-2.028343315997599	-2.028343315997584	0.4102885380384568	0.003346563204201387	-0.8379379409148847	-0.284227447791116	7.812350663740531e-10	-1.840763171196623e-09	-9.324049785471797e-09	-3.013702285779627e-09	2.489172216584091e-09	-8.882816008876239e-09	-4.06778355995915e-09
